<?xml version="1.0" standalone="no"?>
<!DOCTYPE svg PUBLIC "-//W3C//DTD SVG 20010904//EN"
 "http://www.w3.org/TR/2001/REC-SVG-20010904/DTD/svg10.dtd">
<svg version="1.0" xmlns="http://www.w3.org/2000/svg"
 width="300.000000pt" height="240.000000pt" viewBox="0 0 300.000000 240.000000"
 preserveAspectRatio="xMidYMid meet">
<metadata>
Created by potrace 1.10, written by Peter Selinger 2001-2011
</metadata>
<g transform="translate(0.000000,240.000000) scale(0.100000,-0.100000)"
fill="#000000" stroke="none">
<path d="M1320 1904 c-19 -14 -36 -27 -39 -29 -2 -3 94 -5 213 -5 l218 0 -24
29 -23 30 -155 0 c-148 -1 -157 -2 -190 -25z"/>
<path d="M1197 1812 c-24 -25 -27 -36 -27 -93 1 -51 7 -75 30 -119 l29 -55 1
148 c0 81 -1 147 -3 147 -2 0 -15 -13 -30 -28z"/>
<path d="M1260 1663 c1 -174 2 -179 28 -231 l28 -53 -1 203 0 203 228 0 c125
0 227 2 227 5 -1 3 -9 15 -19 28 -19 22 -23 22 -255 22 l-236 0 0 -177z"/>
<path d="M1340 1543 l1 -218 29 -55 29 -55 1 248 c0 213 2 247 15 247 10 0 15
-10 15 -33 0 -38 79 -152 106 -152 11 0 22 -15 32 -43 12 -38 16 -41 40 -36
47 11 62 24 62 50 0 20 -4 24 -18 20 -11 -4 -22 2 -30 14 -11 19 -10 20 33 20
l46 0 -7 -36 c-5 -29 -2 -40 17 -60 l22 -24 -59 0 c-71 0 -89 -9 -71 -33 21
-29 80 -32 131 -7 46 22 46 22 46 73 0 29 -4 68 -10 87 -7 23 -6 54 2 97 10
56 14 63 35 63 24 0 24 0 6 25 l-18 24 -227 1 -228 0 0 -217z m363 180 c16 -4
13 -11 -21 -44 -30 -28 -40 -45 -37 -61 3 -17 -5 -31 -31 -52 l-36 -28 -21 21
-21 21 26 0 c14 0 31 7 38 15 18 21 3 71 -28 95 -22 16 -24 21 -13 29 15 10
113 13 144 4z m-149 -65 c51 -60 50 -69 -9 -41 -20 10 -35 24 -35 34 0 10 -3
24 -6 33 -11 29 14 16 50 -26z m178 -7 c-2 -16 -11 -31 -21 -34 -9 -3 -24 -8
-35 -12 -17 -7 -17 -6 -6 16 12 23 48 58 61 59 3 0 4 -13 1 -29z"/>
<path d="M1800 1541 c0 -89 -4 -152 -10 -156 -6 -3 -10 -50 -10 -106 l0 -99
25 16 25 16 0 239 c0 206 -2 239 -15 239 -13 0 -15 -23 -15 -149z"/>
<path d="M1170 1520 l0 -75 26 26 26 26 -26 49 -25 49 -1 -75z"/>
<path d="M1430 1376 c0 -216 0 -220 26 -273 15 -29 27 -53 28 -53 0 0 0 106
-2 236 -2 232 -3 236 -27 272 l-25 37 0 -219z"/>
<path d="M1515 1235 c0 -135 2 -245 5 -245 3 1 15 9 28 19 21 19 22 25 22 205
0 104 -4 186 -9 186 -5 0 -13 17 -18 37 -21 88 -28 36 -28 -202z"/>
<path d="M1261 1348 c-1 -43 0 -78 2 -78 2 0 13 13 25 29 l21 29 -24 49 -24
48 0 -77z"/>
<path d="M1718 1344 c-28 -15 -28 -15 -28 -119 0 -58 3 -105 8 -105 4 1 16 8
27 18 18 15 20 29 20 120 0 56 0 102 0 102 0 -1 -12 -8 -27 -16z"/>
<path d="M1605 1205 c0 -80 2 -145 5 -145 3 0 16 7 28 16 21 14 22 22 22 140
0 100 -3 124 -14 124 -8 0 -20 2 -28 5 -10 4 -13 -23 -13 -140z"/>
<path d="M1340 1188 c0 -43 1 -78 3 -78 2 0 13 13 25 30 l22 30 -24 47 -25 48
-1 -77z"/>
<path d="M970 880 c0 -15 7 -20 25 -20 24 0 25 -2 25 -65 0 -58 2 -65 20 -65
18 0 20 7 20 65 0 58 2 65 20 65 13 0 20 7 20 20 0 18 -7 20 -65 20 -58 0 -65
-2 -65 -20z"/>
<path d="M1150 815 l0 -85 55 0 c48 0 55 2 55 20 0 16 -7 20 -35 20 -24 0 -35
5 -35 15 0 10 10 15 30 15 24 0 30 4 30 21 0 19 -4 21 -30 16 -22 -5 -30 -3
-30 8 0 10 11 15 35 15 28 0 35 4 35 20 0 18 -7 20 -55 20 l-55 0 0 -85z"/>
<path d="M1320 815 l0 -85 55 0 c48 0 55 2 55 20 0 16 -7 20 -35 20 -24 0 -35
5 -35 15 0 10 10 15 30 15 24 0 30 4 30 21 0 19 -4 21 -30 16 -22 -5 -30 -3
-30 8 0 10 10 15 30 15 23 0 30 4 30 20 0 17 -7 20 -50 20 l-50 0 0 -85z"/>
<path d="M1485 815 l0 -85 46 0 c54 0 80 16 79 50 0 14 0 38 0 54 -1 45 -25
66 -79 66 l-46 0 0 -85z m83 33 c-3 -7 -13 -13 -23 -13 -10 0 -20 6 -22 13 -3
7 5 12 22 12 17 0 25 -5 23 -12z m10 -60 c-7 -20 -58 -23 -58 -4 0 11 10 16
31 16 20 0 29 -4 27 -12z"/>
<path d="M1689 871 c-36 -36 -37 -70 -3 -110 51 -61 144 -28 144 50 0 83 -83
118 -141 60z m89 -23 c27 -27 7 -78 -29 -78 -21 0 -49 26 -49 45 0 35 53 58
78 33z"/>
<path d="M1870 894 c0 -4 14 -31 31 -61 22 -38 29 -61 25 -78 -6 -22 -3 -25
19 -25 22 0 25 4 25 33 0 17 13 56 29 85 l29 52 -24 0 c-16 0 -28 -10 -40 -32
-16 -30 -17 -31 -30 -13 -8 10 -14 25 -14 32 0 7 -11 13 -25 13 -14 0 -25 -3
-25 -6z"/>
</g>
</svg>
