<?xml version="1.0" standalone="no"?>
<!DOCTYPE svg PUBLIC "-//W3C//DTD SVG 20010904//EN"
 "http://www.w3.org/TR/2001/REC-SVG-20010904/DTD/svg10.dtd">
<svg version="1.0" xmlns="http://www.w3.org/2000/svg"
 width="300.000000pt" height="344.000000pt" viewBox="0 0 300.000000 344.000000"
 preserveAspectRatio="xMidYMid meet">
<metadata>
Created by potrace 1.10, written by Peter Selinger 2001-2011
</metadata>
<g transform="translate(0.000000,344.000000) scale(0.100000,-0.100000)"
fill="#000000" stroke="none">
<path d="M1064 3364 c-32 -19 -68 -44 -79 -54 -11 -10 -35 -25 -53 -35 -19 -9
-32 -18 -30 -21 10 -9 1178 -9 1178 1 0 6 -17 29 -38 52 -20 23 -45 53 -55 67
l-18 26 -423 0 -422 0 -60 -36z m908 -31 c57 -55 70 -53 -464 -53 l-493 1 34
27 c19 15 39 32 45 39 8 8 124 12 430 12 l419 2 29 -28z"/>
<path d="M837 2663 l2 -498 76 -150 75 -149 0 572 0 572 635 -2 c351 -2 635 1
635 6 0 4 -17 29 -39 55 -21 25 -43 56 -50 69 l-12 22 -662 0 -662 0 2 -497z
m1304 444 c15 -11 39 -49 39 -61 0 -3 -267 -6 -593 -6 -587 0 -594 0 -613 -21
-17 -19 -18 -48 -21 -462 -2 -243 -3 -454 -3 -469 0 -45 -19 -32 -50 35 l-30
62 0 452 c0 248 3 458 6 467 6 14 70 16 628 16 472 -1 625 -4 637 -13z"/>
<path d="M720 3141 c0 -4 -10 -19 -22 -33 -13 -13 -42 -46 -65 -72 l-43 -48 0
-172 0 -171 52 -105 c29 -58 56 -107 60 -110 3 -3 10 -18 13 -33 20 -76 25 4
25 363 0 253 -4 390 -10 390 -5 0 -10 -4 -10 -9z m-19 -228 c0 -126 0 -336 -1
-360 -1 -30 -20 -8 -49 58 -31 69 -32 74 -30 208 0 75 5 143 10 152 12 24 53
69 62 69 4 0 7 -57 8 -127z"/>
<path d="M1070 2323 l0 -607 73 -146 72 -145 3 683 2 682 50 0 50 0 0 -98 0
-98 37 -45 c21 -24 42 -50 48 -57 5 -7 17 -21 26 -30 9 -9 41 -56 73 -104 l57
-88 53 0 53 0 18 -67 c10 -38 21 -72 24 -78 3 -5 11 -26 16 -45 9 -30 15 -35
45 -38 55 -6 94 6 154 45 l56 37 0 64 0 64 -27 -6 c-16 -4 -36 -9 -45 -12 -11
-3 -23 5 -35 23 -10 15 -20 30 -24 33 -3 3 -11 15 -18 28 l-12 23 128 -3 128
-4 3 -37 c2 -20 -1 -37 -7 -37 -23 0 -41 -33 -41 -75 0 -48 14 -67 99 -128
l44 -32 -119 -12 c-66 -7 -155 -16 -199 -20 -80 -8 -80 -8 -78 -36 4 -55 33
-78 129 -103 l89 -24 75 21 c41 11 82 25 90 29 8 5 45 28 83 52 l67 43 0 105
c0 88 -5 122 -31 210 -16 58 -30 125 -31 150 0 36 24 176 57 327 5 19 13 22
65 25 l61 3 -23 29 c-13 16 -31 37 -40 47 -9 10 -21 27 -28 38 -11 21 -13 21
-640 21 l-630 0 0 -607z m1254 545 c22 -30 20 -48 -4 -48 -31 0 -47 -36 -73
-165 -42 -202 -43 -215 -8 -348 19 -70 33 -152 36 -204 l4 -86 -33 -31 c-48
-45 -96 -71 -176 -97 -62 -19 -77 -21 -118 -10 -26 6 -58 14 -72 17 -33 7 -62
35 -52 51 5 8 39 15 83 18 40 3 107 8 148 11 81 6 105 14 121 43 8 16 1 28
-40 69 -28 28 -57 69 -65 92 -8 22 -10 38 -6 35 14 -8 49 72 43 100 -8 44 -36
54 -159 56 -97 2 -115 0 -133 -16 -26 -23 -25 -47 3 -90 20 -32 54 -55 100
-69 30 -10 16 -47 -31 -83 -43 -32 -91 -43 -119 -25 -16 10 -48 87 -57 136 -8
44 -47 89 -71 80 -33 -13 -76 19 -127 95 -28 42 -54 78 -57 81 -3 3 -30 36
-59 74 l-52 69 0 83 c0 78 -2 84 -27 104 -37 29 -114 18 -127 -17 -5 -13 -17
-786 -16 -1108 l0 -90 -29 45 c-15 25 -33 61 -39 80 -17 49 -15 1152 2 1162 6
4 277 8 603 8 l592 0 15 -22z"/>
<path d="M1511 2754 c-17 -21 -21 -41 -21 -98 0 -82 12 -107 62 -126 18 -7 51
-20 73 -30 107 -47 165 -47 165 1 0 30 -56 135 -94 175 -35 37 -133 104 -152
104 -7 0 -22 -12 -33 -26z m104 -57 c39 -30 75 -62 80 -73 25 -48 69 -120 78
-125 16 -11 -11 -20 -30 -11 -51 26 -112 52 -124 53 -8 0 -31 8 -52 17 l-38
17 -2 88 c-1 53 2 87 8 87 6 0 42 -24 80 -53z"/>
<path d="M2087 2702 c-63 -42 -104 -90 -132 -151 -16 -36 -16 -45 -5 -66 16
-30 33 -31 107 -4 141 51 147 57 148 149 0 53 -4 72 -19 89 -26 28 -35 27 -99
-17z m81 -69 l-3 -78 -45 -13 c-25 -7 -57 -20 -72 -28 -14 -8 -33 -14 -42 -14
-9 0 -16 -4 -16 -10 0 -5 -7 -10 -15 -10 -21 0 -19 7 23 76 35 59 133 152 160
153 10 1 12 -18 10 -76z"/>
<path d="M2393 2733 l-23 -4 0 -418 0 -417 -40 -23 -40 -22 0 -275 c0 -151 3
-274 8 -274 4 0 18 10 32 23 14 12 42 33 63 46 l37 23 0 664 c0 365 0 667 1
671 1 10 -10 11 -38 6z m7 -1088 c0 -216 0 -216 -25 -240 -13 -14 -29 -25 -35
-25 -7 0 -10 74 -10 220 0 213 1 220 22 240 46 43 48 35 48 -195z"/>
<path d="M585 2256 c0 -191 1 -202 18 -192 9 6 19 18 22 26 3 8 23 35 45 60
22 25 40 49 40 54 0 5 -20 51 -45 103 -25 51 -45 97 -45 101 0 4 -8 17 -18 29
-16 22 -17 14 -17 -181z m73 -25 c7 -21 6 -32 -8 -49 -15 -18 -19 -19 -24 -6
-3 9 -6 36 -6 61 0 38 2 44 14 34 8 -7 19 -24 24 -40z"/>
<path d="M1315 1842 l0 -607 49 -95 c27 -52 60 -117 75 -145 l26 -50 3 125 c6
284 -3 1181 -13 1188 -5 4 -37 48 -70 99 -33 50 -62 92 -65 92 -3 1 -5 -272
-5 -607z m85 430 l25 -37 3 -552 c2 -391 0 -553 -8 -553 -6 0 -24 28 -41 63
l-29 62 0 528 c1 400 4 527 13 527 7 0 23 -17 37 -38z"/>
<path d="M1558 1465 c-2 -378 -1 -688 2 -690 5 -3 101 64 138 95 9 8 12 125
12 520 0 281 1 513 3 518 1 4 -10 8 -25 10 -23 3 -29 11 -43 60 -9 31 -20 66
-25 77 -5 11 -13 36 -18 55 -5 20 -15 36 -25 38 -15 3 -17 -48 -19 -683z m95
427 c21 -23 21 -25 23 -495 0 -296 -3 -479 -9 -492 -11 -22 -34 -42 -57 -48
-17 -4 -17 23 -12 743 3 354 4 382 18 350 8 -19 25 -45 37 -58z"/>
<path d="M835 1765 c0 -113 2 -205 5 -205 3 0 25 29 50 63 24 34 50 66 57 70
21 13 16 33 -42 145 -30 59 -55 113 -55 120 0 7 -3 12 -7 12 -5 0 -8 -92 -8
-205z m70 -6 c15 -28 15 -33 0 -55 -22 -33 -36 -21 -34 29 3 67 11 72 34 26z"/>
<path d="M2175 1791 c-3 -6 -30 -22 -60 -36 l-54 -27 -3 -297 c-2 -163 -2
-298 -1 -299 1 -2 22 11 46 30 25 18 57 42 71 52 l26 19 0 283 c0 260 -4 308
-25 275z m-15 -296 l0 -236 -27 -26 c-25 -26 -26 -26 -33 -7 -8 23 -12 418 -4
456 5 23 18 34 62 47 1 1 2 -105 2 -234z"/>
<path d="M1810 1361 c0 -226 2 -411 4 -411 2 0 19 13 37 30 19 16 45 35 59 42
14 7 28 17 32 23 13 18 10 683 -4 691 -6 4 -28 11 -47 15 -20 4 -46 11 -58 14
l-23 7 0 -411z m101 326 c0 -7 2 -144 3 -306 2 -292 2 -295 -20 -320 -16 -18
-26 -23 -33 -16 -16 16 -16 656 0 666 15 9 49 -7 50 -24z"/>
<path d="M1065 1325 c0 -113 3 -205 6 -205 4 0 15 12 25 28 9 15 35 48 56 73
21 25 38 49 38 53 0 7 -121 256 -124 256 0 0 -1 -92 -1 -205z m75 -39 c0 -11
-4 -27 -9 -35 -16 -25 -31 0 -31 52 l1 52 19 -24 c11 -13 20 -33 20 -45z"/>
<path d="M47 504 c-4 -4 -7 -27 -7 -50 l0 -43 58 -3 57 -3 3 -183 2 -182 56 0
56 0 -4 180 c-3 181 -3 181 20 187 12 3 36 3 52 1 39 -6 52 11 48 59 l-3 38
-166 3 c-91 1 -168 -1 -172 -4z m283 -48 c0 -9 -7 -13 -18 -11 -10 2 -33 -8
-50 -22 l-32 -24 0 -160 c0 -147 -1 -160 -17 -157 -16 3 -18 19 -19 153 -1
170 -7 191 -59 201 -19 3 -35 12 -35 19 0 9 29 13 115 14 96 2 115 -1 115 -13z"/>
<path d="M537 503 c-4 -3 -7 -109 -7 -235 l0 -228 145 0 145 0 0 53 0 53 -90
-2 -90 -1 0 43 0 44 85 0 85 0 0 50 0 50 -86 0 -85 0 3 38 3 37 88 -2 87 -2 0
54 0 55 -138 0 c-76 0 -142 -3 -145 -7z m233 -48 c0 -12 -14 -15 -65 -15 -69
0 -82 -9 -100 -68 -8 -28 46 -88 72 -78 21 8 87 -4 76 -14 -4 -4 -30 -10 -57
-14 -63 -7 -86 -28 -86 -78 0 -64 29 -82 121 -78 25 1 38 -4 42 -15 6 -14 -6
-15 -101 -13 l-107 3 3 180 c2 104 8 185 14 193 7 8 40 12 99 12 72 0 89 -3
89 -15z"/>
<path d="M1000 275 l0 -235 145 0 145 0 2 40 c0 22 1 45 2 52 1 9 -24 11 -91
9 l-93 -3 0 46 0 46 80 0 80 0 0 50 0 50 -80 0 -80 0 0 35 c0 42 17 48 112 43
l63 -3 3 53 3 52 -145 0 -146 0 0 -235z m235 180 c0 -5 -20 -11 -45 -13 -72
-4 -89 -11 -105 -43 -29 -55 12 -106 86 -107 43 -1 81 -21 44 -23 -11 -1 -24
-2 -30 -4 -5 -1 -23 -3 -40 -4 -47 -3 -66 -23 -67 -71 -1 -58 25 -83 89 -85
76 -3 85 -4 78 -15 -8 -13 -192 -13 -200 0 -9 14 -9 356 0 370 9 14 190 9 190
-5z"/>
<path d="M1470 276 l0 -236 108 0 c124 0 172 11 208 47 48 48 57 109 24 173
-16 32 -18 44 -9 67 18 47 3 105 -37 144 l-34 33 -130 4 -130 4 0 -236z m269
170 c18 -16 21 -31 21 -90 0 -41 7 -88 17 -114 21 -55 10 -106 -30 -136 -23
-17 -46 -22 -124 -24 -52 -2 -99 0 -104 5 -5 5 -9 89 -10 187 -1 140 2 180 12
188 8 5 55 7 105 6 74 -2 96 -7 113 -22z"/>
<path d="M1583 430 c-19 -8 -33 -31 -39 -69 -2 -8 10 -27 26 -42 23 -24 36
-29 72 -27 88 2 128 64 78 118 -23 25 -36 30 -72 29 -23 0 -53 -4 -65 -9z
m117 -40 c16 -16 18 -25 10 -40 -9 -17 -21 -20 -70 -20 l-60 0 0 33 c0 43 5
47 57 47 30 0 49 -6 63 -20z"/>
<path d="M1583 258 c-32 -15 -46 -72 -28 -108 18 -34 32 -40 101 -40 45 0 59
4 79 25 40 40 30 96 -22 123 -27 15 -100 14 -130 0z m141 -44 c19 -49 -6 -71
-83 -73 l-61 -1 0 45 0 45 69 0 c54 0 70 -4 75 -16z"/>
<path d="M2127 496 c-137 -51 -199 -225 -123 -344 51 -80 111 -115 196 -116
71 -1 121 17 171 62 39 34 79 121 79 171 0 77 -64 181 -133 217 -44 22 -143
28 -190 10z m128 -28 c26 -7 63 -28 84 -48 71 -64 90 -154 49 -232 -20 -38
-34 -55 -87 -100 -24 -21 -151 -16 -186 6 -58 38 -86 77 -103 146 -9 38 -9 38
3 90 11 47 90 124 141 138 53 14 48 14 99 0z"/>
<path d="M2145 421 c-23 -10 -53 -33 -68 -50 -23 -27 -27 -42 -27 -92 0 -33 5
-70 11 -82 19 -38 70 -76 108 -82 20 -3 44 -8 54 -10 9 -2 17 0 17 4 0 4 9 7
20 8 11 1 34 12 50 25 77 61 83 187 12 251 -23 21 -86 46 -117 46 -11 0 -38
-8 -60 -18z m149 -53 c72 -63 56 -171 -32 -210 -58 -26 -105 -17 -149 27 -29
29 -33 39 -33 86 0 48 3 55 40 91 36 33 47 38 89 38 39 0 54 -6 85 -32z"/>
<path d="M2550 501 c0 -5 22 -48 50 -97 27 -49 50 -95 50 -101 0 -7 3 -13 8
-13 4 0 17 -22 30 -49 17 -37 22 -67 22 -125 l0 -76 55 0 55 0 0 83 0 82 70
129 c39 70 70 132 70 137 0 5 5 9 10 9 6 0 10 7 10 15 0 12 -13 15 -60 15 -56
0 -61 -2 -73 -27 -6 -16 -14 -30 -17 -33 -3 -3 -14 -25 -25 -50 -23 -55 -35
-71 -45 -65 -5 3 -27 43 -51 90 l-42 85 -58 0 c-33 0 -59 -4 -59 -9z m132 -99
c42 -74 58 -92 83 -92 20 1 73 61 96 112 11 24 36 44 45 35 2 -2 -24 -59 -58
-126 -50 -100 -62 -132 -63 -177 -2 -51 -17 -86 -30 -72 -4 3 -8 30 -9 60 -3
50 -23 126 -36 138 -12 11 -49 80 -52 97 -2 9 -11 25 -20 35 -10 10 -18 27
-18 38 0 33 27 12 62 -48z"/>
</g>
</svg>
