 <svg  version="1.0" xmlns="http://www.w3.org/2000/svg"  width="300.000000pt" height="344.000000pt" viewBox="0 0 300.000000 344.000000"  preserveAspectRatio="xMidYMid meet">  <g transform="translate(0.000000,344.000000) scale(0.050000,-0.050000)" fill="#4c0c6d" stroke="none"> <path d="M2170 6753 c-106 -61 -359 -234 -365 -250 -3 -7 526 -13 1175 -13 649 0 1180 7 1180 16 0 9 -51 79 -112 155 l-113 139 -842 0 -843 0 -80 -47z"/> <path d="M1673 5325 l3 -995 152 -300 152 -300 0 1146 0 1145 1270 -5 c779 -4 1270 1 1270 13 0 10 -35 60 -77 110 -42 50 -87 111 -100 136 l-24 45 -1325 0 -1324 0 3 -995z"/> <path d="M1440 6285 c-1 -8 -30 -47 -65 -87 -36 -39 -94 -106 -130 -148 l-65 -76 0 -341 0 -340 135 -276 c74 -152 142 -276 150 -276 8 -1 15 350 15 779 0 507 -7 780 -20 780 -11 0 -20 -7 -20 -15z"/> <path d="M2140 4646 l0 -1215 145 -290 145 -291 5 1365 5 1365 100 0 100 0 0 -200 0 -200 75 -85 c41 -46 84 -96 95 -110 11 -15 30 -38 42 -52 13 -13 64 -87 115 -164 51 -76 107 -159 124 -184 25 -37 49 -45 137 -45 l106 0 36 -133 c64 -236 101 -316 151 -324 94 -14 220 21 328 92 l111 74 0 125 c0 137 -8 145 -114 105 -60 -23 -108 16 -178 147 l-30 56 256 -8 256 -8 6 -73 c4 -40 -2 -73 -13 -73 -46 0 -83 -67 -83 -151 0 -95 28 -132 196 -254 111 -81 97 -87 -246 -105 -427 -22 -461 -29 -456 -96 8 -113 68 -161 261 -208 l178 -44 159 44 c104 29 211 78 313 144 l154 100 1 211 c0 204 -8 253 -93 536 -48 160 -36 277 84 838 9 41 22 45 129 45 145 0 143 -10 16 149 l-104 131 -1256 0 -1256 0 0 -1214z m849 983 c-32 -14 -49 -26 -36 -27 18 -2 18 -14 0 -52 -13 -27 -32 -48 -43 -47 -47 4 -72 -4 -61 -22 6 -10 3 -24 -9 -31 -11 -7 -20 8 -20 34 -1 81 -24 136 -57 138 -18 0 -4 12 32 25 36 13 107 20 159 16 l94 -8 -59 -26z m1424 26 c-13 -8 -2 -15 27 -15 l50 -1 -44 -37 c-24 -20 -38 -44 -30 -53 8 -8 1 -7 -16 3 -55 33 -188 23 -223 -17 -19 -21 -50 -35 -70 -31 -20 3 -36 -3 -37 -15 0 -11 -43 -62 -95 -113 -52 -51 -95 -102 -95 -114 0 -12 -9 -22 -19 -22 -11 0 -14 -15 -7 -33 9 -24 5 -31 -16 -23 -18 7 -31 -1 -33 -21 -1 -18 -7 -64 -11 -103 -11 -84 2 -124 33 -109 13 6 8 -1 -10 -14 -32 -23 -32 -27 0 -52 18 -16 23 -23 10 -17 -12 6 -66 -2 -120 -18 -60 -18 -100 -22 -104 -9 -3 10 -17 13 -30 5 -13 -7 -11 2 4 20 16 19 40 34 54 34 15 0 33 10 41 23 9 14 5 18 -9 9 -26 -16 -28 -3 -10 63 6 24 18 41 25 36 8 -4 15 9 17 30 1 22 -6 39 -17 39 -11 0 -15 8 -9 18 6 9 -3 29 -19 42 -16 13 -25 33 -19 42 6 10 2 18 -10 18 -11 0 -21 12 -21 28 0 15 -13 38 -30 52 -16 13 -24 35 -17 47 8 13 6 17 -2 9 -17 -16 -71 30 -71 60 0 11 -15 25 -33 32 -18 7 -27 18 -20 25 6 7 -17 28 -53 48 -35 19 -63 48 -62 64 2 19 -15 28 -44 27 -26 -1 -45 7 -43 18 3 12 124 21 302 24 163 2 300 6 303 10 4 3 142 6 306 6 165 0 290 -7 277 -15z m-1164 -275 c83 -66 151 -131 151 -143 0 -12 36 -75 80 -139 77 -113 79 -159 6 -121 -102 52 -224 103 -248 104 -15 1 -62 17 -105 36 l-76 34 0 159 c0 88 1 167 1 175 4 33 46 10 191 -105z m1087 -114 l-6 -154 -120 -42 c-66 -23 -154 -59 -196 -79 -41 -20 -80 -31 -87 -25 -25 26 150 275 253 361 154 127 163 124 156 -61z m-1042 -419 c5 -13 22 -20 38 -14 15 6 28 3 28 -7 0 -10 33 -14 73 -9 123 14 154 -139 37 -184 -23 -9 -100 39 -100 63 0 8 -7 12 -15 9 -8 -3 -15 4 -15 15 0 11 -7 18 -15 16 -28 -7 -105 27 -105 47 0 10 -11 13 -25 4 -17 -10 -16 -3 3 20 24 29 24 32 -3 22 -17 -6 -35 2 -42 20 -10 26 1 31 60 27 39 -2 76 -16 81 -29z m956 -27 c15 0 30 10 34 22 4 13 18 -1 31 -29 21 -45 19 -55 -16 -73 -22 -12 -38 -15 -37 -6 7 42 -5 66 -32 66 -16 0 -29 16 -28 35 1 21 5 25 11 10 6 -14 22 -25 37 -25z m152 -426 c26 -35 -7 -110 -51 -119 -36 -7 -44 -1 -36 28 5 20 0 37 -13 37 -30 0 -28 55 3 65 37 13 83 7 97 -11z"/> <path d="M4775 5466 c-33 -8 -35 -66 -35 -844 l0 -835 -80 -45 -80 -45 0 -548 c0 -302 7 -549 15 -549 9 0 38 21 65 46 28 25 84 66 125 91 l75 46 5 714 c3 392 3 997 1 1343 -5 660 -3 650 -91 626z"/> <path d="M1170 4508 c0 -224 6 -408 13 -408 8 0 57 59 109 130 53 72 103 130 112 130 46 0 -161 511 -222 549 -7 4 -12 -176 -12 -401z"/> <path d="M2627 3685 l3 -1215 125 -252 c69 -138 125 -261 125 -272 0 -12 14 -32 30 -46 28 -23 30 113 25 1282 l-5 1308 -135 188 c-74 104 -135 196 -135 205 0 9 -8 17 -18 17 -12 0 -18 -484 -15 -1215z"/> <path d="M3120 4296 c-11 -230 -5 -2756 6 -2756 9 0 39 21 66 47 28 26 86 68 129 95 105 65 98 -17 100 1124 l1 1024 -51 6 c-45 6 -90 90 -91 168 0 7 -11 39 -24 70 -13 31 -33 92 -45 136 -16 62 -89 131 -91 86z"/> <path d="M1661 3530 c1 -457 1 -456 115 -293 45 64 96 128 113 142 17 14 31 41 31 58 0 40 -224 499 -245 501 -8 1 -15 -182 -14 -408z"/> <path d="M4353 3585 c-5 -8 -60 -41 -121 -73 l-112 -59 0 -534 c0 -294 -6 -562 -12 -596 -10 -50 -6 -63 20 -63 17 0 32 7 32 15 0 8 34 37 75 64 179 117 165 56 165 694 0 511 -9 613 -47 552z"/> <path d="M3620 2720 c0 -451 4 -820 8 -820 5 0 46 32 92 70 46 39 91 70 100 70 75 0 80 45 80 740 0 425 -7 682 -20 690 -18 11 -229 70 -251 70 -5 0 -9 -369 -9 -820z"/> <path d="M2119 3052 c-5 -5 -3 -102 6 -216 8 -113 10 -298 3 -411 -14 -246 -21 -244 130 -46 145 190 141 144 32 372 -49 103 -90 195 -90 203 -1 25 -70 109 -81 98z"/> <path d="M84 915 l6 -105 110 0 110 0 5 -365 6 -365 111 0 110 0 -3 348 c-5 404 -8 395 127 387 l104 -5 0 100 0 100 -346 5 -346 6 6 -106z"/> <path d="M1073 1007 c-7 -8 -13 -219 -13 -470 l0 -457 290 0 290 0 0 111 0 112 -175 -7 -175 -6 -6 85 -6 85 171 0 171 0 0 100 0 100 -171 0 -171 0 6 75 6 75 175 -5 175 -5 0 110 0 110 -277 0 c-152 0 -282 -6 -290 -13z"/> <path d="M2000 550 l0 -470 287 0 288 0 12 92 c18 127 14 129 -188 115 l-179 -13 0 92 0 92 165 6 c180 7 198 23 166 148 -11 46 -20 48 -171 48 -88 0 -161 7 -161 15 -1 8 -6 35 -10 59 -13 70 50 91 223 75 l148 -14 0 113 0 112 -290 0 -290 0 0 -470z"/> <path d="M2940 550 l0 -470 235 0 c412 1 588 174 447 438 -29 55 -32 83 -17 145 64 252 -70 357 -457 357 l-208 0 0 -470z m460 230 c72 -72 23 -120 -121 -120 l-119 0 0 67 c0 85 9 93 113 93 61 0 99 -12 127 -40z m48 -352 c38 -100 -16 -148 -169 -148 l-119 0 0 90 0 90 138 0 c107 0 140 -7 150 -32z"/> <path d="M4245 991 c-481 -218 -355 -919 165 -920 436 0 646 507 337 816 -116 117 -363 168 -502 104z m343 -256 c145 -126 112 -342 -64 -420 -114 -50 -201 -34 -293 53 -238 224 111 581 357 367z"/> <path d="M5095 1008 c-7 -6 21 -67 62 -135 41 -68 92 -159 113 -203 22 -44 45 -84 51 -90 54 -47 99 -206 99 -346 l0 -154 110 0 110 0 0 157 c0 153 39 268 158 463 189 310 190 320 42 320 -113 0 -123 -4 -145 -55 -13 -30 -29 -59 -35 -65 -6 -5 -28 -50 -49 -100 -76 -178 -79 -178 -192 50 l-85 170 -114 0 c-62 0 -119 -5 -125 -12z"/> </g> </svg> 